<svg id="Layer_1" data-name="Layer 1" xmlns="http://www.w3.org/2000/svg" viewBox="0 0 6000 6000"><defs><style>.cls-1{opacity:0.5;}</style></defs><g id="ViN59i.tif"><g class="cls-1"><path d="M407.21,3.44c.25,8,.71,16,.71,24q.06,607.1-.36,1214.19c0,17.06,3.66,21.77,21.32,21.73,254.21-.65,508.43-.32,762.64-.76,15,0,20.24,3,20.09,19.37-.86,95.16-.65,190.33-.14,285.49.07,12.61-3,16.51-16,16.5q-561.66-.52-1123.34-.34c-4,0-7.92-.78-11.88-1.2V344c33.14-32.66,66.59-65,99.35-98,37.11-37.44,73.24-75.85,110.46-113.19,30.52-30.63,62.13-60.16,93-90.47,12.81-12.58,24.91-25.88,37.34-38.86Z" transform="translate(-60.2 -3.44)"/><path d="M541.2,3.44C557.09,6,573,8.35,588.85,11.19c27.83,5,55.81,9.35,83.34,15.67,25.92,6,51.43,13.78,77,21.34,28.83,8.55,58.05,16.23,86.06,27,33.51,12.91,65.45,29.92,98.91,43,54.46,21.27,102.48,54.17,151.48,84.63,39.72,24.69,74.75,57,111.48,86.42,15.41,12.35,30.76,25.05,44.52,39.17,35.88,36.82,72.64,73,105.81,112.19A1077.57,1077.57,0,0,1,1492.5,661.38c18.87,38.32,35.53,77.81,51.62,117.41,13.57,33.42,25.76,67.48,36.81,101.82,5.89,18.33,8.19,37.84,11.87,56.87,4.22,21.8,8.81,43.56,12.1,65.51,5.25,35,10.71,70,13.84,105.25,2.13,23.88.09,48.12.56,72.18.18,9.34-2.39,13.15-12.48,13.13q-164-.43-328,0c-8.88,0-11.7-2.92-12-11.87-1-30.62-1.57-61.38-5-91.78-2.73-24.08-9-47.81-14.5-71.5-5.86-25.25-12.17-50.42-19.25-75.35a215.58,215.58,0,0,0-14.25-37c-22.72-45.58-46.36-90.7-69.17-136.24-31.36-62.58-76.79-115-125.21-163.82-41.62-42-86.14-82.16-138.48-111.49-42.09-23.59-83.78-48.17-127.28-68.86-42.85-20.38-87.4-37.48-134.84-45-35.11-5.54-70.19-11.25-105.31-16.75-14.58-2.29-29.45-3.31-43.67-6.94-3.65-.93-7.53-9.58-7.57-14.72-.52-62.48-.37-125-.33-187.44q.06-75.66.28-151.32Z" transform="translate(-60.2 -3.44)"/><path d="M2362.16,2838.09c-14.2-2.54-28.33-5.57-42.61-7.49-19.34-2.6-39-3.16-58.13-6.77-22.51-4.24-44.77-10.17-66.82-16.49-47.87-13.72-96.22-26.25-143.09-42.91-36.85-13.1-71.77-31.67-107.56-47.8-63.93-28.82-122.22-67.39-178.79-108.06-49.66-35.7-97-74.92-138.79-120-39.08-42.2-80.53-82.85-114.52-128.93-38.3-51.92-72.34-107.58-102.8-164.53-27.58-51.58-49.11-106.57-70.85-161-12-29.94-19.22-61.81-27.87-93-6.78-24.49-13.18-49.13-18.37-74s-6.77-50.51-13.24-74.94c-11.34-42.82-7.44-86.21-9-129.46-.39-11.05,2.74-14.77,14.26-14.73q163.14.6,326.3,0c10.33,0,13.51,2.7,13.92,13.38,1.14,29.87.54,60.39,6.72,89.35,7.89,37,9.14,75.25,25,111,11.88,26.78,17.09,56.49,26.07,84.63,3,9.27,8.53,17.7,12.79,26.56,15.4,32,29.37,64.86,46.56,95.9,12.8,23.1,28.57,44.82,45.08,65.5,27.36,34.29,54.1,69.59,85.32,100.15,33.64,32.92,72.17,60.81,108.48,91s77.67,51.85,120.54,70.68c41.37,18.17,82,39.52,125.1,51.86,51,14.6,101.86,33,156.35,33.1,13.63,0,27.54,3,40.7,6.72,3.67,1.05,7.29,9.8,7.32,15,.45,82.53.29,165.07.33,247.61,0,29.23.19,58.46.29,87.69Z" transform="translate(-60.2 -3.44)"/><path d="M891.62,2198.2c0-177.13.19-354.27-.34-531.4,0-14.84,3.16-19.18,18.67-19,95,.81,190.07.63,285.11.13,12.48-.07,16.46,2.7,16.44,15.95-.42,254.52-.23,509.05-.72,763.57,0,7.25-4.48,16.06-9.66,21.46-34.12,35.57-69,70.4-103.64,105.45q-61.57,62.28-123.19,124.51c-20.88,21.06-41.71,42.19-63,62.78-4.22,4.08-10.66,5.86-16.08,8.7-1.18-5.18-3.39-10.36-3.4-15.53Q891.5,2466.48,891.62,2198.2Z" transform="translate(-60.2 -3.44)"/><path d="M2227.47,1583.71c-176.32,0-352.64-.22-529,.37-16.16.05-21.15-3.47-21-20.51.91-94.57.7-189.15.14-283.73-.08-13.45,3.51-17.22,17.13-17.2q378.69.61,757.39.62c7.13,0,15.79,2.92,21.08,7.53,15.68,13.67,30.14,28.77,44.88,43.49q74.19,74.07,148.2,148.3,52.47,52.86,104.25,106.42c2.93,3,4.42,7.43,6.58,11.19-5.19,1.17-10.37,3.37-15.56,3.37Q2494.54,1583.83,2227.47,1583.71Z" transform="translate(-60.2 -3.44)"/><path d="M2225.47,1968.71c-118.46,0-236.92-.22-355.37.28-14.64.07-20.45-2.38-20.28-19.2.94-95.11.67-190.23.18-285.34-.06-12.28,2.29-16.67,15.77-16.62,139,.53,278.11,0,417.16,1,10.08.08,21.69,7.94,29.82,15.27,17.76,16,33.77,34,50.44,51.23,10.86,11.24,21.38,22.83,32.48,33.82,36.6,36.23,73.64,72,110,108.44q44.49,44.51,87.71,90.28c3.63,3.84,3.93,10.84,5.78,16.38-5,1.49-9.95,4.27-14.93,4.28Q2404.87,1968.88,2225.47,1968.71Z" transform="translate(-60.2 -3.44)"/></g></g></svg>