<svg id="Layer_1" data-name="Layer 1" xmlns="http://www.w3.org/2000/svg" viewBox="0 0 2658.77 2769.7"><defs><style>.cls-1{opacity:0.5;}.cls-2{fill:#fff;}</style></defs><g id="gDbMK7.tif"><g class="cls-1"><path class="cls-2" d="M105.17,368.15V32.5q1329.18,0,2658.78,0v2769.7H2421.89V2462.8c-17.92-3.54-32.73-8.86-47.58-9-53.24-.41-102.93-18.19-152.78-32.44-42.13-12-81.8-32.91-122.24-50.61-41.92-18.36-82.29-39.54-117.81-69-35-29-72.54-55.58-104.69-87.52-31.8-31.6-58.74-68.19-86.86-103.36-15.12-18.92-30.11-38.39-41.8-59.48-16.79-30.3-30.49-62.31-45.54-93.57-4.17-8.65-9.38-16.92-12.52-25.91-11.43-32.72-22.64-65.54-33-98.62-3.79-12.17-5.2-25.13-7.11-37.82-2-13.57-2-27.6-5.3-40.82-7.88-31.54-12.36-63.29-11.43-95.81.16-5.42-.46-10.87-.74-16.72h-349c4.38,46.92,9.55,92.08,12.47,137.39a359,359,0,0,0,13.8,79.8c8,26.88,10.8,55.32,19.24,82,14.21,44.94,30.44,89.28,47,133.44,20.14,53.74,45.34,105.1,76.63,153.33,23.26,35.87,44.18,73.64,70.72,106.91,35.3,44.25,73,87.07,113.46,126.61,42.28,41.32,87.06,80.72,134.41,116.06,54.61,40.75,112.27,77.73,174.85,105.94,35,15.75,69.08,33.87,105.1,46.65,45.8,16.26,93,28.48,139.84,41.87,21.54,6.16,43.29,12,65.28,16.1,18.69,3.51,37.92,4.07,56.81,6.6,14,1.87,27.78,4.82,41.66,7.29H105.17V1576.77c5.55.42,11.09,1.2,16.63,1.21q544.64.07,1089.25,0c5.91,0,11.83-.56,17.72-.86V1264.41h-784V33.21c-7.2,4.52-12.31,6.55-15.83,10.14-27.3,27.77-53.89,56.24-81.46,83.73-33,32.86-67,64.58-99.94,97.5C212.28,259.84,178,296,143,331.59,130.75,344.1,117.81,356,105.17,368.15ZM499.05,32.84V380.31c217.27,15.58,402.07,98.16,552.72,254.86s227.82,344.25,234.86,560.67h342c0-31.33,1.77-61.57-.49-91.51-2.34-31-8.24-61.86-13.25-92.67-3.39-20.83-7.94-41.48-12-62.21-3.71-19.1-5.63-38.78-11.53-57.19-10.57-33-23.57-65.2-35.51-97.75-16.85-45.94-36.27-90.56-59.82-133.69-29.49-54-61.22-106.35-99-154.88-17.16-22-34.25-44.25-53.24-64.65-34.64-37.22-69.12-74.84-106.59-109.09-32.67-29.88-68.21-57-104.58-82.34-40.71-28.34-82.89-54.89-126.14-79.15-31.87-17.88-67.15-29.56-99.75-46.27C849.18,94.93,786.67,80.6,725.14,63.62c-35-9.65-71.24-15.33-107.28-20.11C579,38.36,539.71,36.35,499.05,32.84ZM918.62,1641.39V2720.73c7.55-5.09,13-7.69,17-11.66q31.7-30.87,62.82-62.33,60.27-60.63,120.36-121.46c32.69-33,64.82-66.66,98.25-98.92,9.74-9.39,13.21-18.38,13.19-31.62q-.58-366.76-.29-733.53v-19.82Zm768.15-64.61H2763.1c-3.84-5.7-5.67-9.54-8.5-12.42q-52.12-53-104.52-105.84-71-71.46-142.19-142.69c-12.16-12.13-27.26-21.85-37.27-35.43-8.84-12-18-15.67-31.87-15.66q-366.77.42-733.51.2h-18.47Zm902.15,376c-3.24-7.92-4.23-15.29-8.38-19.67q-42.28-44.57-85.74-88c-35.58-35.54-71.78-70.46-107.47-105.89-12.36-12.27-23.91-25.35-36-37.86-12.53-12.93-25.64-25.32-37.88-38.51-12.66-13.65-25.13-22.85-46.39-22.64-130.87,1.27-261.75.64-392.63.64h-19.05v311.94Z" transform="translate(-105.17 -32.47)"/><path d="M105.17,368.15c12.64-12.17,25.58-24,37.87-36.56,34.93-35.57,69.24-71.75,104.48-107,32.89-32.92,67-64.64,99.94-97.5,27.57-27.49,54.16-56,81.46-83.73,3.52-3.59,8.63-5.62,15.83-10.14v1231.2h784v312.72c-5.89.3-11.81.86-17.72.86q-544.62.06-1089.25,0c-5.54,0-11.08-.79-16.63-1.21Z" transform="translate(-105.17 -32.47)"/><path d="M2354.74,2802.17c-13.88-2.47-27.7-5.42-41.66-7.29-18.89-2.53-38.12-3.09-56.81-6.6-22-4.15-43.74-9.94-65.28-16.1-46.79-13.39-94-25.61-139.84-41.87-36-12.78-70.14-30.9-105.1-46.65-62.58-28.21-120.24-65.19-174.85-105.94-47.35-35.34-92.13-74.74-134.41-116.06-40.46-39.54-78.16-82.36-113.46-126.61-26.54-33.27-47.46-71-70.72-106.91-31.29-48.23-56.49-99.59-76.63-153.33-16.55-44.16-32.78-88.5-47-133.44-8.44-26.7-11.28-55.14-19.24-82a359,359,0,0,1-13.8-79.8c-2.92-45.31-8.09-90.47-12.47-137.39h349c.28,5.85.9,11.3.74,16.72-.93,32.52,3.55,64.27,11.43,95.81,3.31,13.22,3.26,27.25,5.3,40.82,1.91,12.69,3.32,25.65,7.11,37.82,10.32,33.08,21.53,65.9,33,98.62,3.14,9,8.35,17.26,12.52,25.91,15.05,31.26,28.75,63.27,45.54,93.57,11.69,21.09,26.68,40.56,41.8,59.48,28.12,35.17,55.06,71.76,86.86,103.36,32.15,31.94,69.65,58.48,104.69,87.52,35.52,29.44,75.89,50.62,117.81,69,40.44,17.7,80.11,38.57,122.24,50.61,49.85,14.25,99.54,32,152.78,32.44,14.85.12,29.66,5.44,47.58,9v339.37Z" transform="translate(-105.17 -32.47)"/><path d="M499.05,32.84c40.66,3.51,79.94,5.52,118.81,10.67,36,4.78,72.31,10.46,107.28,20.11,61.53,17,124,31.31,181.61,60.82,32.6,16.71,67.88,28.39,99.75,46.27,43.25,24.26,85.43,50.81,126.14,79.15,36.37,25.32,71.91,52.46,104.58,82.34,37.47,34.25,72,71.87,106.59,109.09,19,20.4,36.08,42.63,53.24,64.65,37.82,48.53,69.55,100.86,99,154.88,23.55,43.13,43,87.75,59.82,133.69,11.94,32.55,24.94,64.77,35.51,97.75,5.9,18.41,7.82,38.09,11.53,57.19,4,20.73,8.58,41.38,12,62.21,5,30.81,10.91,61.62,13.25,92.67,2.26,29.94.49,60.18.49,91.51h-342c-7-216.42-84.18-403.94-234.86-560.67S716.32,395.89,499.05,380.31Z" transform="translate(-105.17 -32.47)"/><path d="M918.62,1641.39H1230v19.82q0,366.76.29,733.53c0,13.24-3.45,22.23-13.19,31.62-33.43,32.26-65.56,65.88-98.25,98.92q-60.12,60.78-120.36,121.46-31.2,31.38-62.82,62.33c-4.07,4-9.48,6.57-17,11.66Z" transform="translate(-105.17 -32.47)"/><path d="M1686.77,1576.78V1264.94h18.47q366.75,0,733.51-.2c13.91,0,23,3.67,31.87,15.66,10,13.58,25.11,23.3,37.27,35.43q71.34,71.1,142.19,142.69,52.41,52.79,104.52,105.84c2.83,2.88,4.66,6.72,8.5,12.42Z" transform="translate(-105.17 -32.47)"/><path d="M2588.92,1952.82H1855.34V1640.88h19.05c130.88,0,261.76.63,392.63-.64,21.26-.21,33.73,9,46.39,22.64,12.24,13.19,25.35,25.58,37.88,38.51,12.13,12.51,23.68,25.59,36,37.86,35.69,35.43,71.89,70.35,107.47,105.89q43.45,43.42,85.74,88C2584.69,1937.53,2585.68,1944.9,2588.92,1952.82Z" transform="translate(-105.17 -32.47)"/></g></g></svg>